# xmcd
#
# Track frame offsets:
#	150
#	18156
#	36033
#	53756
#	71700
#	92788
#	108944
#	126730
#	144515
#	164286
#	187431
#	205683
#	230159
#	242175
#
# Disc length: 3442 seconds
# Revision: 0
# Processed by: cddbd v1.5.2PL0 Copyright (c) Steve Scherf et al.
# Submitted via: dBpowerAMP V12.0
#
DISCID=cf0d700e
DTITLE=Depedro - DePedro
DYEAR=2008
DGENRE=Pop/Rock
TTITLE0=Como El Viento
TTITLE1=Don't Leave Me Now
TTITLE2=La Memoria
TTITLE3=Two Parts In One
TTITLE4=Llorona
TTITLE5=Te Sigo Soñando
TTITLE6=Comanche
TTITLE7=¿Qué Puedo Hacer Por Ti?
TTITLE8=Equivocado
TTITLE9=Tomorrow
TTITLE10=Miguelito
TTITLE11=Sobre Una Línea
TTITLE12=Running Scared
TTITLE13=Perfect Time
EXTD=
EXTT0=
EXTT1=
EXTT2=
EXTT3=
EXTT4=
EXTT5=
EXTT6=
EXTT7=
EXTT8=
EXTT9=
EXTT10=
EXTT11=
EXTT12=
EXTT13=
PLAYORDER=
